<svg xmlns="http://www.w3.org/2000/svg" x="0px" y="0px" viewBox="6.409600257873535 6.988700866699219 35.70029830932617 34.02260208129883" enable-background="new 0 0 48 48">
<g>
	<path fill="none" stroke="#EC4899FF" stroke-width="1" stroke-linecap="round" stroke-linejoin="round" stroke-miterlimit="10" d="   M13.3717,16.971l-1.2121-6.4086c-0.397-1.8145-1.9775-3.0737-3.8581-3.0737H6.9096"/>
</g>
<g>
	
		<path fill="#FFFFFF" stroke="#000000" stroke-width="1" stroke-linecap="round" stroke-linejoin="round" stroke-miterlimit="10" d="   M21.0549,7.9091h-1.6451c-1.607,0-2.9097,1.3027-2.9097,2.9097v3.0107h7.4646v-3.0107   C23.9646,9.2118,22.6619,7.9091,21.0549,7.9091z"/>
	
		<path fill="#FFFFFF" stroke="#000000" stroke-width="1" stroke-linecap="round" stroke-linejoin="round" stroke-miterlimit="10" d="   M28.5195,7.9091h-1.6451c-1.607,0-2.9097,1.3027-2.9097,2.9097v3.0107h7.4646v-3.0107   C31.4292,9.2118,30.1265,7.9091,28.5195,7.9091z"/>
	
		<path fill="#FFFFFF" stroke="#000000" stroke-width="1" stroke-linecap="round" stroke-linejoin="round" stroke-miterlimit="10" d="   M35.9841,7.9091H34.339c-1.607,0-2.9097,1.3027-2.9097,2.9097v3.0107h7.4646v-3.0107C38.8939,9.2118,37.5911,7.9091,35.9841,7.9091   z"/>
</g>
<g>
	
		<path fill="#FFFFFF" stroke="#EC4899FF" stroke-width="1" stroke-linecap="round" stroke-linejoin="round" stroke-miterlimit="10" d="   M33.4285,31.3295H21.4392c-3.3209,0-6.1503-2.4115-6.6765-5.6905l-1.4758-9.197c-0.2199-1.3705,0.8386-2.6125,2.2267-2.6125   h23.8406c1.388,0,2.4466,1.242,2.2267,2.6125l-1.4758,9.197C39.5788,28.918,36.7494,31.3295,33.4285,31.3295z"/>
	
		<circle fill="#FFFFFF" stroke="#EC4899FF" stroke-width="1" stroke-linecap="round" stroke-linejoin="round" stroke-miterlimit="10" cx="20.229" cy="38.3295" r="2.1818"/>
	
		<circle fill="#FFFFFF" stroke="#EC4899FF" stroke-width="1" stroke-linecap="round" stroke-linejoin="round" stroke-miterlimit="10" cx="34.229" cy="38.3295" r="2.1818"/>
</g>
<g>
	
		<line fill="none" stroke="#000000" stroke-width="1" stroke-linecap="round" stroke-linejoin="round" stroke-miterlimit="10" x1="24.8801" y1="21.7727" x2="29.9393" y2="21.7727"/>
</g>
</svg>